<svg width="48" height="48" viewBox="0 0 48 48" fill="none" xmlns="http://www.w3.org/2000/svg">
    <path d="M17.75 42C15.5833 42 13.75 41.2412 12.25 39.7235C10.75 38.2058 10 36.3813 10 34.25V16.8C8.83333 16.3667 7.875 15.679 7.125 14.737C6.375 13.7947 6 12.7212 6 11.5165C6 9.97217 6.54167 8.66667 7.625 7.6C8.70833 6.53333 10.0083 6 11.525 6C13.0417 6 14.3333 6.53567 15.4 7.607C16.4667 8.67833 17 9.97917 17 11.5095C17 12.7032 16.625 13.775 15.875 14.725C15.125 15.675 14.1667 16.3667 13 16.8V34.25C13 35.5563 13.4583 36.6745 14.375 37.6045C15.2917 38.5348 16.425 39 17.775 39C19.125 39 20.25 38.5348 21.15 37.6045C22.05 36.6745 22.5 35.5563 22.5 34.25V13.75C22.5 11.5833 23.25 9.75 24.75 8.25C26.25 6.75 28.0833 6 30.25 6C32.4167 6 34.25 6.75 35.75 8.25C37.25 9.75 38 11.5833 38 13.75V31.2C39.1667 31.6333 40.125 32.3227 40.875 33.268C41.625 34.2137 42 35.291 42 36.5C42 38 41.4653 39.2917 40.396 40.375C39.3263 41.4583 38.0277 42 36.5 42C35 42 33.7083 41.4583 32.625 40.375C31.5417 39.2917 31 38 31 36.5C31 35.29 31.375 34.2042 32.125 33.2425C32.875 32.2808 33.8333 31.6 35 31.2V13.75C35 12.4167 34.5417 11.2917 33.625 10.375C32.7083 9.45833 31.5833 9 30.25 9C28.9167 9 27.7917 9.45833 26.875 10.375C25.9583 11.2917 25.5 12.4167 25.5 13.75V34.25C25.5 36.3813 24.75 38.2058 23.25 39.7235C21.75 41.2412 19.9167 42 17.75 42ZM11.525 14C12.2083 14 12.7917 13.75 13.275 13.25C13.7583 12.75 14 12.1583 14 11.475C14 10.7917 13.7605 10.2083 13.2815 9.725C12.8022 9.24167 12.2083 9 11.5 9C10.8333 9 10.25 9.2395 9.75 9.7185C9.25 10.1978 9 10.7917 9 11.5C9 12.1667 9.25 12.75 9.75 13.25C10.25 13.75 10.8417 14 11.525 14ZM36.525 39C37.2083 39 37.7917 38.75 38.275 38.25C38.7583 37.75 39 37.1583 39 36.475C39 35.7917 38.7605 35.2083 38.2815 34.725C37.8022 34.2417 37.2083 34 36.5 34C35.8333 34 35.25 34.2395 34.75 34.7185C34.25 35.1978 34 35.7917 34 36.5C34 37.1667 34.25 37.75 34.75 38.25C35.25 38.75 35.8417 39 36.525 39Z"
          fill="#ffffff"/>
</svg>
