<svg xmlns="http://www.w3.org/2000/svg" viewBox="0 0 268 96"><defs><clipPath id="cs"><rect x="6" y="6" width="84" height="84" rx="15"></rect></clipPath></defs><g clip-path="url(#cs)"><path d="M46.4,6 L6,6 L6,90 L46.4,90 L46.4,60 L26.4,67 L26.4,29 L46.4,36 Z" fill="#22506F"></path><path d="M49.6,6 L90,6 L90,90 L49.6,90 L49.6,60 L29.6,67 L29.6,29 L49.6,36 Z" fill="#2C6E9E"></path></g><path d="M132.94 69.30C142.74 69.30 148.02 64.02 148.02 56.48C148.02 50.45 144.59 46.44 137.63 45.17L133.40 44.41C128.93 43.66 127.25 42.15 127.25 39.08C127.25 35.48 129.51 33.63 133.86 33.63C137.92 33.63 140.94 35.25 143.09 37.80L147.55 33.05C144.77 29.57 140.13 27.42 133.81 27.42C124.99 27.42 119.60 31.71 119.60 39.43C119.60 45.05 122.50 49.58 129.98 50.85L134.27 51.55C138.68 52.24 140.36 53.81 140.36 57.00C140.36 60.89 137.81 63.09 133.17 63.09C129.17 63.09 125.63 61.47 122.61 57.99L118.03 62.74C121.10 66.69 126.03 69.30 132.94 69.30ZM181.19 68.60L181.19 62.34L163.21 62.34L163.21 51.20L180.55 51.20L180.55 44.94L163.21 44.94L163.21 34.38L181.19 34.38L181.19 28.12L155.61 28.12L155.61 68.60ZM219.70 68.60L208.28 28.12L197.72 28.12L186.35 68.60L194.01 68.60L196.79 58.33L208.80 58.33L211.64 68.60ZM207.52 52.13L198.13 52.13L202.59 35.60L203.06 35.60ZM245.80 68.60L252.42 68.60L252.42 28.12L243.95 28.12L238.26 43.02L237.86 43.02L232.23 28.12L223.18 28.12L223.18 68.60L229.80 68.60L229.80 49.87L229.45 38.15L229.97 38.15L237.80 58.97L245.63 38.15L246.15 38.15L245.80 49.87Z" fill="#2A2218"></path></svg>
