<svg width="48" height="48" viewBox="0 0 48 48" fill="none" xmlns="http://www.w3.org/2000/svg">
<path d="M2 42L24 4L46 42H2ZM7.2 39H40.8L24 10L7.2 39ZM24.209 36.15C24.6363 36.15 24.9917 36.0053 25.275 35.716C25.5583 35.427 25.7 35.0687 25.7 34.641C25.7 34.2137 25.5553 33.8583 25.266 33.575C24.977 33.2917 24.6187 33.15 24.191 33.15C23.7637 33.15 23.4083 33.2947 23.125 33.584C22.8417 33.873 22.7 34.2313 22.7 34.659C22.7 35.0863 22.8447 35.4417 23.134 35.725C23.423 36.0083 23.7813 36.15 24.209 36.15ZM22.7 30.6H25.7V19.4H22.7V30.6Z" fill="#ffffff"/>
</svg>
