<svg width="24" height="24" viewBox="0 0 48 48" fill="none" xmlns="http://www.w3.org/2000/svg">
    <path d="M25 23.9C25.9667 22.8333 26.7083 21.6167 27.225 20.25C27.7417 18.8833 28 17.4667 28 16C28 14.5333 27.7417 13.1167 27.225 11.75C26.7083 10.3833 25.9667 9.16667 25 8.1C27 8.36667 28.6667 9.25 30 10.75C31.3333 12.25 32 14 32 16C32 18 31.3333 19.75 30 21.25C28.6667 22.75 27 23.6333 25 23.9ZM36 40V34C36 32.8 35.7333 31.6583 35.2 30.575C34.6667 29.4917 33.9667 28.5333 33.1 27.7C34.8 28.3 36.375 29.075 37.825 30.025C39.275 30.975 40 32.3 40 34V40H36ZM40 26V22H36V18H40V14H44V18H48V22H44V26H40ZM16 24C13.8 24 11.9167 23.2167 10.35 21.65C8.78333 20.0833 8 18.2 8 16C8 13.8 8.78333 11.9167 10.35 10.35C11.9167 8.78333 13.8 8 16 8C18.2 8 20.0833 8.78333 21.65 10.35C23.2167 11.9167 24 13.8 24 16C24 18.2 23.2167 20.0833 21.65 21.65C20.0833 23.2167 18.2 24 16 24ZM0 40V34.4C0 33.2667 0.291667 32.225 0.875 31.275C1.45833 30.325 2.23333 29.6 3.2 29.1C5.26667 28.0667 7.36667 27.2917 9.5 26.775C11.6333 26.2583 13.8 26 16 26C18.2 26 20.3667 26.2583 22.5 26.775C24.6333 27.2917 26.7333 28.0667 28.8 29.1C29.7667 29.6 30.5417 30.325 31.125 31.275C31.7083 32.225 32 33.2667 32 34.4V40H0ZM16 20C17.1 20 18.0417 19.6083 18.825 18.825C19.6083 18.0417 20 17.1 20 16C20 14.9 19.6083 13.9583 18.825 13.175C18.0417 12.3917 17.1 12 16 12C14.9 12 13.9583 12.3917 13.175 13.175C12.3917 13.9583 12 14.9 12 16C12 17.1 12.3917 18.0417 13.175 18.825C13.9583 19.6083 14.9 20 16 20ZM4 36H28V34.4C28 34.0333 27.9083 33.7 27.725 33.4C27.5417 33.1 27.3 32.8667 27 32.7C25.2 31.8 23.3833 31.125 21.55 30.675C19.7167 30.225 17.8667 30 16 30C14.1333 30 12.2833 30.225 10.45 30.675C8.61667 31.125 6.8 31.8 5 32.7C4.7 32.8667 4.45833 33.1 4.275 33.4C4.09167 33.7 4 34.0333 4 34.4V36Z"
          fill="#ffffff"/>
</svg>
