<svg width="24" height="24" viewBox="0 0 48 48" fill="none" xmlns="http://www.w3.org/2000/svg">
    <path d="M11.1 35.25C13.2 33.7833 15.2833 32.6583 17.35 31.875C19.4167 31.0917 21.6333 30.7 24 30.7C26.3667 30.7 28.5917 31.0917 30.675 31.875C32.7583 32.6583 34.85 33.7833 36.95 35.25C38.4167 33.45 39.4583 31.6333 40.075 29.8C40.6917 27.9667 41 26.0333 41 24C41 19.1667 39.375 15.125 36.125 11.875C32.875 8.625 28.8333 7 24 7C19.1667 7 15.125 8.625 11.875 11.875C8.625 15.125 7 19.1667 7 24C7 26.0333 7.31667 27.9667 7.95 29.8C8.58333 31.6333 9.63333 33.45 11.1 35.25ZM23.9905 25.5C22.0635 25.5 20.4417 24.8385 19.125 23.5155C17.8083 22.1928 17.15 20.5678 17.15 18.6405C17.15 16.7135 17.8115 15.0917 19.1345 13.775C20.4572 12.4583 22.0822 11.8 24.0095 11.8C25.9365 11.8 27.5583 12.4615 28.875 13.7845C30.1917 15.1072 30.85 16.7322 30.85 18.6595C30.85 20.5865 30.1885 22.2083 28.8655 23.525C27.5428 24.8417 25.9178 25.5 23.9905 25.5ZM24.0235 44C21.2745 44 18.6833 43.475 16.25 42.425C13.8167 41.375 11.6917 39.9417 9.875 38.125C8.05833 36.3083 6.625 34.1872 5.575 31.7615C4.525 29.3362 4 26.7445 4 23.9865C4 21.2288 4.525 18.6417 5.575 16.225C6.625 13.8083 8.05833 11.6917 9.875 9.875C11.6917 8.05833 13.8128 6.625 16.2385 5.575C18.6638 4.525 21.2555 4 24.0135 4C26.7712 4 29.3583 4.525 31.775 5.575C34.1917 6.625 36.3083 8.05833 38.125 9.875C39.9417 11.6917 41.375 13.8088 42.425 16.2265C43.475 18.6442 44 21.2275 44 23.9765C44 26.7255 43.475 29.3167 42.425 31.75C41.375 34.1833 39.9417 36.3083 38.125 38.125C36.3083 39.9417 34.1912 41.375 31.7735 42.425C29.3558 43.475 26.7725 44 24.0235 44ZM24 41C25.8333 41 27.625 40.7333 29.375 40.2C31.125 39.6667 32.85 38.7333 34.55 37.4C32.85 36.2 31.1167 35.2833 29.35 34.65C27.5833 34.0167 25.8 33.7 24 33.7C22.2 33.7 20.4167 34.0167 18.65 34.65C16.8833 35.2833 15.15 36.2 13.45 37.4C15.15 38.7333 16.875 39.6667 18.625 40.2C20.375 40.7333 22.1667 41 24 41ZM24 22.5C25.1333 22.5 26.0583 22.1417 26.775 21.425C27.4917 20.7083 27.85 19.7833 27.85 18.65C27.85 17.5167 27.4917 16.5917 26.775 15.875C26.0583 15.1583 25.1333 14.8 24 14.8C22.8667 14.8 21.9417 15.1583 21.225 15.875C20.5083 16.5917 20.15 17.5167 20.15 18.65C20.15 19.7833 20.5083 20.7083 21.225 21.425C21.9417 22.1417 22.8667 22.5 24 22.5Z"
          fill="#ffffff"/>
</svg>
