<svg width="48" height="48" viewBox="0 0 48 48" fill="none" xmlns="http://www.w3.org/2000/svg">
    <path fill="#ffffff" fill-rule="evenodd" clip-rule="evenodd"
          d="M16.2385 42.425C18.6638 43.475 21.2555 44 24.0135 44C26.0791 44 28.0537 43.7038 29.9374 43.1113C29.9581 43.1326 29.979 43.1538 30 43.175C31.8333 45.025 34.0417 45.95 36.625 45.95C39.2083 45.95 41.425 45.025 43.275 43.175C45.125 41.325 46.05 39.1333 46.05 36.6C46.05 33.9857 45.125 31.757 43.275 29.914C43.2338 29.873 43.1925 29.8325 43.151 29.7924C43.717 27.9467 44 26.0115 44 23.9865C44 21.2288 43.475 18.6333 42.425 16.2C41.375 13.7667 39.95 11.65 38.15 9.85C36.35 8.05 34.236 6.625 31.808 5.575C29.38 4.525 26.7857 4 24.025 4C21.2643 4 18.67 4.525 16.242 5.575C13.814 6.625 11.6917 8.05 9.875 9.85C8.05833 11.65 6.625 13.764 5.575 16.192C4.525 18.62 4 21.2143 4 23.975C4 26.7357 4.525 29.33 5.575 31.758C6.625 34.186 8.05833 36.3083 9.875 38.125C11.6917 39.9417 13.8128 41.375 16.2385 42.425ZM38.7826 37.45H37.55V38.6946V42.95H35.9V40.0617V37.45H34.4728H30.4V35.8H35.9V30.3H37.55V33.05V34.3337V35.8H40.1268H43.05V36.625V37.45H38.7826ZM40.5676 27.9897C40.8559 26.7204 41 25.3904 41 24V23.35C40.8 24.2167 40.3432 24.9417 39.6295 25.525C38.9162 26.1083 38.073 26.4 37.1 26.4H33.1C32 26.4 31.0583 26.0083 30.275 25.225C29.4917 24.4417 29.1 23.5 29.1 22.4V20.4H21.1V16.4C21.1 15.3 21.4917 14.3583 22.275 13.575C23.0583 12.7917 24 12.4 25.1 12.4H27.1V11.3C27.1 10.7667 27.325 10.1 27.775 9.3C28.225 8.5 28.7333 8.01667 29.3 7.85C28.4667 7.58333 27.6107 7.375 26.732 7.225C25.8537 7.075 24.943 7 24 7C19.3 7 15.2917 8.64683 11.975 11.9405C8.65833 15.2342 7 19.254 7 24H14.5C16.7 24 18.5833 24.7833 20.15 26.35C21.7167 27.9167 22.5 29.8 22.5 32V34H16.5V39.25C17.6333 39.8167 18.8283 40.25 20.085 40.55C21.3417 40.85 22.6467 41 24 41C25.4388 41 26.811 40.8476 28.1163 40.5427C27.5388 39.3361 27.25 38.0219 27.25 36.6C27.25 33.9857 28.1665 31.757 29.9995 29.914C31.8325 28.0713 34.0493 27.15 36.65 27.15C38.0647 27.15 39.3706 27.4299 40.5676 27.9897Z"/>
</svg>
