<svg width="48" height="48" viewBox="0 0 48 48" fill="none" xmlns="http://www.w3.org/2000/svg">
    <path d="M9 42C8.175 42 7.46883 41.7062 6.8815 41.1185C6.29383 40.5312 6 39.825 6 39V9C6 8.175 6.29383 7.46867 6.8815 6.881C7.46883 6.29367 8.175 6 9 6H19.25C19.4167 4.83333 19.95 3.875 20.85 3.125C21.75 2.375 22.8 2 24 2C25.2 2 26.25 2.375 27.15 3.125C28.05 3.875 28.5833 4.83333 28.75 6H39C39.825 6 40.5313 6.29367 41.119 6.881C41.7063 7.46867 42 8.175 42 9V25.45C41.5333 25.1833 41.0417 24.9667 40.525 24.8C40.0083 24.6333 39.5 24.5 39 24.4V9H9V39H24.45C24.5833 39.5333 24.7337 40.0528 24.901 40.5585C25.0687 41.0642 25.2683 41.5447 25.5 42H9ZM9 36.65V39V9V24.4V24.2V36.65ZM14 34H24.55C24.6833 33.4667 24.8333 32.95 25 32.45C25.1667 31.95 25.3833 31.4667 25.65 31H14V34ZM14 25.5H31.2C31.6667 25.2667 32.1167 25.075 32.55 24.925C32.9833 24.775 33.4667 24.6333 34 24.5V22.5H14V25.5ZM14 17H34V14H14V17ZM24 8.15C24.4667 8.15 24.875 7.975 25.225 7.625C25.575 7.275 25.75 6.86667 25.75 6.4C25.75 5.93333 25.575 5.525 25.225 5.175C24.875 4.825 24.4667 4.65 24 4.65C23.5333 4.65 23.125 4.825 22.775 5.175C22.425 5.525 22.25 5.93333 22.25 6.4C22.25 6.86667 22.425 7.275 22.775 7.625C23.125 7.975 23.5333 8.15 24 8.15ZM36.625 45.95C34.0417 45.95 31.8333 45.025 30 43.175C28.1667 41.325 27.25 39.1333 27.25 36.6C27.25 33.9857 28.1665 31.757 29.9995 29.914C31.8325 28.0713 34.0493 27.15 36.65 27.15C39.2167 27.15 41.425 28.0713 43.275 29.914C45.125 31.757 46.05 33.9857 46.05 36.6C46.05 39.1333 45.125 41.325 43.275 43.175C41.425 45.025 39.2083 45.95 36.625 45.95ZM35.9 42.95H37.55V37.45H43.05V35.8H37.55V30.3H35.9V35.8H30.4V37.45H35.9V42.95Z"
          fill="#ffffff"/>
</svg>
